HIERARCHY
ROOT ui
{
	 OFFSET 0 0 0
	 CHANNELS 3 XPosition YPosition Z Position
	 EndSite
	 {
	 OFFSET 0 -1 0
	 }
}
ROOT li
{
	 OFFSET 0 0 0
	 CHANNELS 3 XPosition YPosition Z Position
	 EndSite
	 {
	 OFFSET 0 -1 0
	 }
}
ROOT ul
{
	 OFFSET 0 0 0
	 CHANNELS 3 XPosition YPosition Z Position
	 EndSite
	 {
	 OFFSET 0 -1 0
	 }
}
ROOT ll
{
	 OFFSET 0 0 0
	 CHANNELS 3 XPosition YPosition Z Position
	 EndSite
	 {
	 OFFSET 0 -1 0
	 }
}
ROOT tt
{
	 OFFSET 0 0 0
	 CHANNELS 3 XPosition YPosition Z Position
	 EndSite
	 {
	 OFFSET 0 -1 0
	 }
}
ROOT tb
{
	 OFFSET 0 0 0
	 CHANNELS 3 XPosition YPosition Z Position
	 EndSite
	 {
	 OFFSET 0 -1 0
	 }
}
ROOT td
{
	 OFFSET 0 0 0
	 CHANNELS 3 XPosition YPosition Z Position
	 EndSite
	 {
	 OFFSET 0 -1 0
	 }
}
ROOT v
{
	 OFFSET 0 0 0
	 CHANNELS 3 XPosition YPosition Z Position
	 EndSite
	 {
	 OFFSET 0 -1 0
	 }
}
ROOT bn
{
	 OFFSET 0 0 0
	 CHANNELS 3 XPosition YPosition Z Position
	 EndSite
	 {
	 OFFSET 0 -1 0
	 }
}
MOTION
Frames: 27
Frame Time: 0.002
-0.0030253279209136964	-0.004614973068237304	0		0.4878636779785156	-2.423920166015625	0		-0.977535400390625	-0.03947344207763672	0		-0.7009632568359375	-2.563115966796875	0		1.508098876953125	-0.8065087280273437	0		3.0341904296875	-0.0864707794189453	0		4.4688984375	0.041659992218017576	0		5.88103564453125	0.4450934143066406	0		-0.20116749572753906	5.923314453125	0		
-0.0030244770050048826	-0.004769440174102783	0		0.5189012451171875	-2.4224580078125	0		-0.9766340942382813	-0.047645469665527344	0		-0.7146224365234375	-2.537102294921875	0		1.5020177001953126	-0.8135790405273438	0		3.068002197265625	-0.10202974700927735	0		4.4729736328125	0.047481502532958984	0		5.88513330078125	0.45292306518554687	0		-0.1699547576904297	5.942771484375	0		
0.008101167678833008	0.0049280462265014644	0		0.4980312805175781	-2.413359130859375	0		-0.9766318359375	-0.0478160400390625	0		-0.6583856811523437	-2.5199697265625	0		1.5048997802734374	-0.8237714233398438	0		3.03640576171875	-0.06978036499023438	0		4.4770498046875	0.05329304504394531	0		5.8851328125	0.4527932739257812	0		-0.18511143493652343	5.93279296875	0		
-0.003017400026321411	-0.0051083722114562986	0		0.518937744140625	-2.422790771484375	0		-0.9927994384765625	-0.061796073913574216	0		-0.6951007080078125	-2.498689208984375	0		1.48782421875	-0.8307240600585938	0		3.027075927734375	-0.09682146453857422	0		4.468080078125	0.055258689880371095	0		5.88103564453125	0.4447062683105469	0		-0.15205885314941406	5.93920654296875	0		
0.004078824996948242	0.0016216909885406494	0		0.4899660339355469	-2.42260888671875	0		-0.9989879150390625	-0.07790923309326171	0		-0.6568532104492187	-2.481350341796875	0		1.4966522216796876	-0.8460071411132812	0		3.016248779296875	-0.08384754180908204	0		4.45609033203125	0.05525577926635742	0		5.88104248046875	0.4445636291503906	0		-0.16722491455078126	5.92821044921875	0		
-0.006929688930511475	-4.3058401346206666E-4	0		0.5169725341796875	-2.4251298828125	0		-0.993034423828125	-0.08318000030517578	0		-0.7175909423828125	-2.46278759765625	0		1.4675643310546875	-0.8548240966796875	0		3.033114501953125	-0.09622479248046875	0		4.46507958984375	0.05298785400390625	0		5.8810546875	0.44441796875	0		-0.20132522583007811	5.922443359375	0		
0.004116918087005615	0.0012379260063171387	0		0.49206655883789063	-2.421010009765625	0		-0.9870736694335938	-0.08845690155029297	0		-0.7064124145507813	-2.45212548828125	0		1.4625074462890626	-0.861944091796875	0		3.01532568359375	-0.08117221069335938	0		4.453115234375	0.05397868347167969	0		5.8810732421875	0.44427139282226563	0		-0.18522804260253906	5.93204736328125	0		
0.02619561004638672	0.004765768051147461	0		0.49415652465820314	-2.4182294921875	0		-0.9811046752929687	-0.09373883056640625	0		-0.73319580078125	-2.43899658203125	0		1.45949658203125	-0.8660919799804687	0		3.009196044921875	-0.09426799774169922	0		4.4572197265625	0.05977045440673828	0		5.88519921875	0.4520760498046875	0		-0.15117964172363282	5.93742431640625	0		
2.482250034809113E-4	0.0058862028121948245	0		0.5191558227539063	-2.423736083984375	0		-0.9851023559570312	-0.09690132904052734	0		-0.699986083984375	-2.42761669921875	0		1.4504205322265624	-0.876166748046875	0		3.015396240234375	-0.08151454925537109	0		4.44525830078125	0.059763092041015625	0		5.89013330078125	0.44387322998046874	0		-0.1663379669189453	5.92640771484375	0		
-0.0028577260971069337	-0.006281322002410889	0		0.5192265625	-2.423935791015625	0		-0.9931571655273438	-0.10501866149902343	0		-0.6978906860351562	-2.425855224609375	0		1.4633359375	-0.8875157470703126	0		3.00731640625	-0.09158524322509766	0		4.45120068359375	0.051535385131835934	0		5.89017041015625	0.44373602294921877	0		-0.13328004455566406	5.93279052734375	0		
-0.0067532210350036625	-0.0014417279958724976	0		0.5172752075195313	-2.42611376953125	0		-0.997150390625	-0.10819112396240234	0		-0.6917435913085938	-2.4201484375	0		1.4402056884765626	-0.902420654296875	0		2.983386474609375	-0.08945934295654297	0		4.431330078125	0.05862987899780273	0		5.8812080078125	0.44371331787109375	0		-0.20046952819824218	5.92040966796875	0		
-0.006715591907501221	-0.001655398964881897	0		0.46746115112304687	-2.41670263671875	0		-0.989025390625	-0.10151781463623047	0		-0.7465944213867187	-2.41369189453125	0		1.440255615234375	-0.902614501953125	0		2.992412109375	-0.09074323272705079	0		4.4275283203125	0.07152548217773437	0		5.89533740234375	0.4514066162109375	0		-0.16926812744140626	5.93980859375	0		
0.008374841690063476	0.002941509008407593	0		0.5245211181640625	-2.417617431640625	0		-0.9849450073242187	-0.09779900360107421	0		-0.6624624633789062	-2.408957763671875	0		1.4433350830078124	-0.8998486328125	0		2.992677978515625	-0.07191935729980468	0		4.43955615234375	0.07122309112548827	0		5.885361328125	0.4513968505859375	0		-0.17031063842773436	5.94060107421875	0		
4.1947001218795775E-4	0.00481937313079834	0		0.4945531005859375	-2.419460205078125	0		-0.9970589599609375	-0.10888518524169923	0		-0.7072444458007813	-2.395634033203125	0		1.4582677001953126	-0.90823291015625	0		2.976366455078125	-0.09889740753173829	0		4.41067529296875	0.07942367553710937	0		5.88127587890625	0.44331121826171876	0		-0.1665625762939453	5.92532958984375	0		
-0.006660132884979248	-0.002318089008331299	0		0.5195303344726563	-2.424985107421875	0		-1.0011002197265626	-0.11307408142089843	0		-0.7031550903320313	-2.39191796875	0		1.42917822265625	-0.917078369140625	0		2.9634736328125	-0.09091958618164063	0		4.41558154296875	0.071201416015625	0		5.89027490234375	0.44306005859375	0		-0.20071235656738282	5.9195224609375	0		
-0.006669861793518066	-0.0025463540554046633	0		0.46561932373046877	-2.4195419921875	0		-1.0011084594726563	-0.11331592559814453	0		-0.6902069702148438	-2.3983154296875	0		1.450007080078125	-0.93154443359375	0		2.968378662109375	-0.09816828918457031	0		4.40847265625	0.06312030792236328	0		5.89025927734375	0.442912353515625	0		-0.166731689453125	5.92487255859375	0		
-0.006697275161743164	-0.0027789340019226073	0		0.519556884765625	-2.42543212890625	0		-0.98925830078125	-0.12370784759521485	0		-0.7180545043945312	-2.386213134765625	0		1.440844482421875	-0.9436470336914062	0		2.96367236328125	-0.07230380249023438	0		4.399703125	0.08405253601074218	0		5.88532470703125	0.4508150939941406	0		-0.18478340148925781	5.92885888671875	0		
0.003379371881484985	0.006860562801361084	0		0.4696651916503906	-2.4150498046875	0		-0.9852535400390625	-0.12000520324707031	0		-0.7099632568359375	-2.37755712890625	0		1.4408095703125	-0.9438677368164062	0		2.963394287109375	-0.09150599670410156	0		4.40455810546875	0.07580418395996094	0		5.89817529296875	0.442485107421875	0		-0.20101693725585937	5.9188173828125	0		
0.0011815450191497803	-0.004355134963989257	0		0.5194986572265625	-2.4258994140625	0		-0.993400634765625	-0.12715692138671875	0		-0.7120403442382812	-2.380780029296875	0		1.432633544921875	-0.9539962768554687	0		2.968491455078125	-0.07878139495849609	0		4.40939599609375	0.0675440216064453	0		5.89810791015625	0.4422998657226562	0		-0.20113587951660156	5.91857421875	0		
2.001650035381317E-4	0.0034110310077667236	0		0.4835749816894531	-2.4147001953125	0		-0.9934793090820313	-0.12740992736816406	0		-0.6840059814453125	-2.373375	0		1.4505106201171876	-0.958451416015625	0		2.930292724609375	-0.08853761291503906	0		4.3965009765625	0.0824901351928711	0		5.89802490234375	0.442098876953125	0		-0.16718913269042968	5.92390966796875	0		
-0.006980900764465332	-0.0037527930736541747	0		0.5173306884765625	-2.428363525390625	0		-0.9935743408203125	-0.12766563415527343	0		-0.7121845092773438	-2.38128515625	0		1.430274658203125	-0.9704474487304687	0		2.930197509765625	-0.08877149200439453	0		4.39420849609375	0.06629013061523438	0		5.8979267578125	0.44188150024414063	0		-0.20040118408203125	5.91706396484375	0		
8.952509760856628E-4	-0.005105754852294922	0		0.4653180236816406	-2.420979736328125	0		-0.9896484375	-0.12497335815429687	0		-0.7102504272460938	-2.3785673828125	0		1.4420068359375	-0.9838434448242187	0		2.94298779296875	-0.0971748046875	0		4.38618408203125	0.0731482925415039	0		5.902912109375	0.4495855712890625	0		-0.15036531066894532	5.9301943359375	0		
0.0029050569534301756	0.005609510898590088	0		0.49824325561523436	-2.417643310546875	0		-0.985724365234375	-0.12128353881835938	0		-0.7162242431640625	-2.366755126953125	0		1.4478094482421875	-0.9901737670898437	0		2.943242919921875	-0.06643220520019531	0		4.369158203125	0.08110308837890624	0		5.90688427734375	0.45728521728515625	0		-0.1855452880859375	5.92636376953125	0		
-2.6864299178123476E-4	0.002383268117904663	0		0.5189924926757813	-2.42716357421875	0		-0.9899103393554688	-0.12549673461914063	0		-0.6495152587890625	-2.379838134765625	0		1.4356724853515626	-0.990291015625	0		2.91383837890625	-0.08834048461914062	0		4.385921875	0.07262892150878907	0		5.8975517578125	0.44112921142578126	0		-0.20079959106445314	5.91628515625	0		
-4.1672098636627195E-4	0.0021164679527282716	0		0.5168126831054688	-2.4294072265625	0		-0.990058837890625	-0.12576053619384767	0		-0.7147269897460937	-2.3843056640625	0		1.4363619384765625	-1.0035734252929687	0		2.905702880859375	-0.08751810455322266	0		4.36177587890625	0.07264306640625	0		5.8974052734375	0.4408445434570312	0		-0.2009297637939453	5.91601904296875	0		
-0.007659702777862549	-0.005067788124084473	0		0.51664208984375	-2.4296806640625	0		-0.9902171630859375	-0.12602590942382813	0		-0.6460128784179687	-2.394418212890625	0		1.440075927734375	-1.0139000244140626	0		2.925469482421875	-0.09404903411865234	0		4.36977734375	0.08525016021728515	0		5.8933603515625	0.44959097290039063	0		-0.20006832885742187	5.9147373046875	0		
-7.397580146789551E-4	0.0015709389448165894	0		0.46454855346679685	-2.42232177734375	0		-0.986334716796875	-0.12234287261962891	0		-0.717104736328125	-2.3868173828125	0		1.439903076171875	-1.014185546875	0		2.900697998046875	-0.06204116821289062	0		4.3576748046875	0.09008983612060546	0		5.902185546875	0.448162109375	0		-0.1860560302734375	5.92529150390625	0		
